<svg width="173" height="33" viewBox="0 0 173 33" fill="none" xmlns="http://www.w3.org/2000/svg">
<g clip-path="url(#clip0_98_62)">
<path d="M26.036 27.0623C26.0623 27.4097 25.8815 27.5826 25.4968 27.5826C25.2535 27.5826 24.5499 27.441 23.3893 27.1578C22.2287 26.8746 21.5136 26.6819 21.244 26.5798C18.5628 27.6336 15.9901 28.1606 13.5276 28.1606C9.56417 28.1606 6.3109 26.8367 3.77109 24.1906C1.25758 21.5823 0 18.2858 0 14.3026C0 10.3194 1.21812 6.84996 3.65602 4.16431C6.17117 1.3881 9.43595 0 13.452 0C15.4016 0 17.2362 0.372137 18.9557 1.11806C20.815 1.94137 22.278 3.0973 23.3433 4.5875C23.5619 4.89541 23.6704 5.11442 23.6704 5.24285C23.6704 5.65451 23.0967 6.57662 21.9476 8.00918C20.7985 9.44174 20.0588 10.158 19.7251 10.158C19.6478 10.158 19.3536 9.89457 18.8407 9.36765C18.2127 8.73864 17.5699 8.24959 16.9157 7.90215C15.9408 7.37523 14.8624 7.11177 13.6821 7.11177C11.7571 7.11177 10.2316 7.83135 9.10223 9.2705C8.05014 10.5944 7.5241 12.2459 7.5241 14.2235C7.5241 16.318 8.06987 17.9762 9.15977 19.1963C10.2891 20.456 11.8853 21.085 13.9517 21.085C15.2603 21.085 16.7233 20.7573 18.3393 20.102C18.3015 19.6772 18.1847 18.5986 17.9924 16.8631C17.8247 15.526 17.7425 14.4475 17.7425 13.6242C17.7425 13.3805 17.8264 13.2323 17.9924 13.1812C18.0565 13.1549 18.1584 13.1434 18.2998 13.1434C18.6713 13.1434 19.2335 13.1796 19.9832 13.2487C20.7344 13.3195 21.3016 13.3541 21.6862 13.3541C22.0972 13.3541 22.712 13.3245 23.534 13.2669C24.3543 13.2092 24.9707 13.1796 25.3817 13.1796C25.7023 13.1796 25.8634 13.392 25.8634 13.8152C25.8634 14.4327 25.8272 15.3647 25.7582 16.6095C25.6875 17.856 25.653 18.788 25.653 19.4038C25.653 21.062 25.7746 23.5418 26.0179 26.8449L26.0376 27.0573L26.036 27.0623Z" fill="#006837"/>
<path d="M47.1091 18.197C47.1091 21.1263 46.2148 23.5041 44.4246 25.3285C42.6344 27.153 40.2836 28.0652 37.3723 28.0652C34.461 28.0652 32.2269 27.1662 30.4055 25.3664C28.5841 23.5666 27.6733 21.2548 27.6733 18.4275C27.6733 15.4471 28.5462 13.0266 30.2904 11.1709C32.0346 9.31346 34.3952 8.38477 37.3723 8.38477C40.3494 8.38477 42.6196 9.2937 44.4147 11.1116C46.2115 12.9295 47.1091 15.2907 47.1091 18.1954V18.197ZM40.7965 18.197C40.7965 17.1827 40.4826 16.2853 39.8529 15.5081C39.225 14.7309 38.4096 14.3423 37.4085 14.3423C36.4073 14.3423 35.5607 14.7407 34.9065 15.5377C34.29 16.2836 33.9826 17.1695 33.9826 18.197C33.9826 19.2245 34.29 20.1318 34.9065 20.8761C35.5607 21.673 36.3942 22.0715 37.4085 22.0715C38.4228 22.0715 39.2365 21.673 39.8908 20.8761C40.4941 20.1301 40.7949 19.2377 40.7949 18.197H40.7965Z" fill="#006837"/>
<path d="M59.001 17.214C59.001 20.4266 58.738 22.913 58.2119 24.6732C57.2618 27.7952 55.7362 30.2437 53.6321 32.0171C53.3888 32.2361 53.1898 32.3448 53.0353 32.3448C52.8939 32.3448 52.7526 32.2608 52.6112 32.0945C52.1624 31.5676 51.4638 30.7772 50.5136 29.7234C49.9612 29.2607 49.1475 28.5411 48.0691 27.5647C47.9277 27.4099 47.8571 27.2814 47.8571 27.1794C47.8571 27.0641 47.9277 26.9422 48.0691 26.8138C49.0176 25.979 49.621 25.4076 49.8774 25.098C50.3771 24.4937 50.7618 23.7363 51.0314 22.824C51.3898 21.5775 51.5706 19.5275 51.5706 16.6755C51.5706 10.0709 51.3405 4.94993 50.8785 1.31254C50.8522 1.1841 50.8407 1.0886 50.8407 1.02273C50.8407 0.792203 51.0462 0.675293 51.4572 0.675293C51.8682 0.675293 52.4731 0.695052 53.2753 0.732925C54.0775 0.770797 54.6825 0.790557 55.0935 0.790557C55.4781 0.790557 56.0486 0.770797 56.8064 0.732925C57.5626 0.695052 58.1347 0.675293 58.5193 0.675293C58.904 0.675293 59.0766 0.843249 59.0766 1.17587C59.0766 2.94928 59.0635 5.61846 59.0388 9.18505C59.0125 12.7516 59.001 15.4274 59.001 17.214Z" fill="#39B54A"/>
<path d="M82.055 18.0424C82.055 19.032 82.1126 20.5041 82.2276 22.457C82.3427 24.4099 82.4002 25.8754 82.4002 26.8518C82.4002 27.3656 82.175 27.6422 81.7262 27.6801C80.135 27.7954 78.3135 27.853 76.2603 27.853C76.017 27.853 75.8526 27.4841 75.7704 26.7448C75.6866 26.0055 75.5879 25.6301 75.4729 25.6169C75.3693 25.6679 75.2345 25.7782 75.0685 25.9446C73.6317 27.3969 72.0914 28.123 70.4508 28.123C67.9488 28.123 65.8775 27.1334 64.2352 25.1542C62.6834 23.3034 61.9075 21.0936 61.9075 18.5232C61.9075 15.5544 62.7097 13.1651 64.3125 11.3522C65.9794 9.47666 68.2644 8.53809 71.1626 8.53809C73.1764 8.53809 74.7676 9.24449 75.9348 10.6589C75.9858 10.7232 76.0318 10.7561 76.0696 10.7561C76.1847 10.7561 76.3162 10.4449 76.4641 9.82081C76.6121 9.19838 76.788 8.88552 76.9935 8.88552C77.4686 8.88552 78.3727 9.02055 79.7075 9.29059C80.9783 9.54747 81.889 9.76647 82.4397 9.94595C82.632 10.0233 82.729 10.1254 82.729 10.2539C82.729 10.3049 82.7093 10.4399 82.6715 10.6589C82.2605 12.9856 82.055 15.4457 82.055 18.0408V18.0424ZM75.8592 18.1577C75.8592 17.066 75.5156 16.162 74.8301 15.449C74.143 14.736 73.2487 14.3787 72.1456 14.3787C71.0426 14.3787 70.15 14.7327 69.471 15.4391C68.7905 16.1455 68.4518 17.0511 68.4518 18.1577C68.4518 19.1983 68.8102 20.0925 69.5302 20.8367C70.2486 21.5826 71.1215 21.9548 72.1473 21.9548C73.2372 21.9548 74.1298 21.5975 74.8219 20.8845C75.514 20.1715 75.8608 19.2626 75.8608 18.1577H75.8592Z" fill="#39B54A"/>
<path d="M105.051 22.6677C105.051 26.3298 104.282 28.9578 102.742 30.5517C101.15 32.1836 98.5087 33.0003 94.8132 33.0003C93.7348 33.0003 92.2668 32.8274 90.4059 32.4799C88.0322 32.0436 86.8453 31.5282 86.8453 30.9371C86.8453 30.6934 87.1214 29.4337 87.6721 27.1597C87.7609 26.8007 87.9023 26.6196 88.0963 26.6196C88.1604 26.6328 88.2311 26.6575 88.3083 26.697C90.2843 27.6735 92.1123 28.1625 93.7924 28.1625C94.7162 28.1625 95.6335 27.932 96.5442 27.4693C97.6473 26.9177 98.1996 26.2228 98.1996 25.3879V24.097C96.8911 25.3303 95.211 25.9478 93.1578 25.9478C90.7462 25.9478 88.7637 25.08 87.2119 23.3461C85.711 21.6764 84.9597 19.6198 84.9597 17.1779C84.9597 14.7359 85.6781 12.6859 87.1149 11.0672C88.6157 9.38439 90.5785 8.54297 93.0033 8.54297C94.9398 8.54297 96.4226 9.2362 97.4484 10.6243C97.6539 10.9075 97.7952 11.0491 97.8725 11.0491C97.9876 11.0491 98.0451 10.8186 98.0451 10.3559C98.0451 9.32841 98.1602 8.81466 98.392 8.81466C98.5975 8.81466 99.7071 8.92005 101.721 9.13246C103.735 9.34487 104.78 9.46343 104.857 9.48978C105.076 9.56717 105.185 9.73348 105.185 9.99035C105.185 10.8762 105.155 12.2001 105.097 13.9604C105.04 15.7206 105.01 17.0445 105.01 17.932C105.01 18.4589 105.017 19.2493 105.03 20.3032C105.043 21.357 105.05 22.1474 105.05 22.6743L105.051 22.6677ZM98.3936 17.3277C98.3936 16.3891 98.0829 15.5773 97.4599 14.8891C96.8368 14.2024 96.0576 13.8583 95.1223 13.8583C94.1869 13.8583 93.406 14.209 92.7846 14.9088C92.1616 15.6086 91.8509 16.4287 91.8509 17.3672C91.8509 18.3058 92.1682 19.1143 92.8027 19.796C93.4373 20.4777 94.2099 20.8169 95.1223 20.8169C96.0346 20.8169 96.8385 20.4695 97.4599 19.7762C98.0813 19.083 98.3936 18.2663 98.3936 17.3277Z" fill="#39B54A"/>
<path d="M128.183 10.158C128.183 11.1097 128.137 12.5357 128.048 14.4375C127.957 16.3394 127.913 17.7654 127.913 18.7171C127.913 19.6689 127.944 21.0306 128.008 22.8814C128.072 24.7322 128.105 26.1138 128.105 27.026C128.105 27.3734 127.944 27.5908 127.624 27.6813C127.135 27.8098 126.103 27.874 124.525 27.874C123.126 27.874 122.151 27.8361 121.6 27.7587C121.357 27.7209 121.203 27.5661 121.138 27.296C121.101 26.9107 121.061 26.5254 121.023 26.1401C120.959 25.549 120.869 25.2542 120.754 25.2542C120.933 25.2542 120.285 25.6906 118.811 26.5649C117.335 27.4393 115.995 27.8756 114.788 27.8756C111.389 27.8756 109.375 26.341 108.745 23.2684C108.462 21.8424 108.321 19.7726 108.321 17.0623C108.321 14.1329 108.558 11.8194 109.033 10.1234C109.174 9.59647 109.437 9.33301 109.822 9.33301C110.412 9.33301 111.31 9.33959 112.516 9.35277C113.721 9.36594 114.62 9.37253 115.211 9.37253C115.608 9.37253 115.807 9.54048 115.807 9.8731C115.807 9.96366 115.794 10.0987 115.77 10.2782C115.5 12.0252 115.365 13.7987 115.365 15.5984C115.365 17.8345 115.436 19.3642 115.577 20.1859C115.807 21.5987 116.647 22.3068 118.097 22.3068C118.661 22.3068 119.274 22.0565 119.935 21.5543C120.596 21.0537 120.94 20.5333 120.964 19.9933C120.991 19.5174 121.002 16.2916 121.002 10.316C121.002 9.89121 121.033 9.64093 121.099 9.56354C121.176 9.4351 121.406 9.37088 121.791 9.37088C122.419 9.37088 123.366 9.37747 124.63 9.39064C125.894 9.40381 126.839 9.4104 127.469 9.4104C127.854 9.4104 128.079 9.50755 128.143 9.7002C128.168 9.80394 128.181 9.95708 128.181 10.1629L128.183 10.158Z" fill="#39B54A"/>
<path d="M150.485 27.1218C150.485 27.4693 150.306 27.6685 149.946 27.7196C149.586 27.7706 148.651 27.7969 147.137 27.7969C145.521 27.7969 144.52 27.7591 144.135 27.6817C143.75 27.6043 143.558 27.3408 143.558 26.8913C143.558 26.287 143.578 25.3748 143.615 24.1546C143.653 22.9345 143.673 22.0156 143.673 21.3982C143.673 20.9223 143.66 20.2126 143.635 19.2691C143.609 18.3239 143.597 17.6142 143.597 17.1383C143.597 15.3781 142.835 14.4972 141.307 14.4972C140.808 14.4972 140.222 14.7162 139.557 15.1525C138.838 15.6416 138.478 16.1224 138.478 16.5983V27.0066C138.478 27.4314 138.279 27.6685 137.882 27.7196C137.433 27.7706 136.516 27.7969 135.13 27.7969C133.629 27.7969 132.654 27.7591 132.205 27.6817C131.807 27.6175 131.609 27.405 131.609 27.0461C131.609 26.0433 131.615 24.5333 131.628 22.5162C131.641 20.4991 131.648 18.9826 131.648 17.9666C131.648 14.7672 131.398 12.2545 130.897 10.43C130.87 10.3147 130.859 10.2176 130.859 10.1402C130.859 9.93436 130.956 9.79275 131.148 9.71536C131.957 9.62644 133.034 9.48483 134.382 9.29053C136.422 8.89205 137.569 8.69281 137.826 8.69281C137.967 8.69281 138.076 9.12587 138.153 9.99364C138.23 10.8614 138.339 11.2945 138.48 11.2945C138.339 11.2945 139.029 10.8482 140.548 9.95412C142.069 9.06165 143.398 8.61377 144.541 8.61377C146.17 8.61377 147.53 8.99908 148.621 9.7697C149.839 10.6556 150.449 11.8906 150.449 13.4713V19.6198C150.449 20.4546 150.456 21.7044 150.469 23.3692C150.482 25.0339 150.489 26.2837 150.489 27.1185L150.485 27.1218Z" fill="#39B54A"/>
<path d="M172.865 22.6677C172.865 26.3298 172.096 28.9578 170.556 30.5517C168.964 32.1836 166.323 33.0003 162.627 33.0003C161.549 33.0003 160.081 32.8274 158.22 32.4799C155.846 32.0436 154.659 31.5282 154.659 30.9371C154.659 30.6934 154.935 29.4337 155.486 27.1597C155.575 26.8007 155.716 26.6196 155.91 26.6196C155.974 26.6328 156.045 26.6575 156.122 26.697C158.098 27.6735 159.926 28.1625 161.606 28.1625C162.53 28.1625 163.447 27.932 164.358 27.4693C165.461 26.9177 166.013 26.2228 166.013 25.3879V24.097C164.705 25.3303 163.025 25.9478 160.972 25.9478C158.56 25.9478 156.578 25.08 155.026 23.3461C153.525 21.6764 152.774 19.6198 152.774 17.1779C152.774 14.7359 153.492 12.6859 154.929 11.0672C156.43 9.38439 158.392 8.54297 160.817 8.54297C162.754 8.54297 164.236 9.2362 165.262 10.6243C165.468 10.9075 165.609 11.0491 165.686 11.0491C165.801 11.0491 165.859 10.8186 165.859 10.3559C165.859 9.32841 165.974 8.81466 166.206 8.81466C166.411 8.81466 167.521 8.92005 169.535 9.13246C171.548 9.34487 172.594 9.46343 172.671 9.48978C172.89 9.56717 172.998 9.73348 172.998 9.99035C172.998 10.8762 172.97 12.2001 172.911 13.9604C172.854 15.7206 172.824 17.0445 172.824 17.932C172.824 18.4589 172.831 19.2493 172.844 20.3032C172.857 21.357 172.864 22.1474 172.864 22.6743L172.865 22.6677ZM166.207 17.3277C166.207 16.3891 165.897 15.5773 165.274 14.8891C164.651 14.2024 163.871 13.8583 162.936 13.8583C162.001 13.8583 161.22 14.209 160.598 14.9088C159.975 15.6086 159.665 16.4287 159.665 17.3672C159.665 18.3058 159.982 19.1143 160.617 19.796C161.251 20.4777 162.024 20.8169 162.936 20.8169C163.848 20.8169 164.652 20.4695 165.274 19.7762C165.895 19.083 166.207 18.2663 166.207 17.3277Z" fill="#39B54A"/>
</g>
<defs>
<clipPath id="clip0_98_62">
<rect width="173" height="33" fill="white"/>
</clipPath>
</defs>
</svg>
