<svg width="80" height="80" viewBox="0 0 80 80" fill="none" xmlns="http://www.w3.org/2000/svg">
<g clip-path="url(#clip0_98_104)">
<path d="M40 71.6667C35.6112 71.6667 31.5 70.8333 27.6667 69.1667C23.8334 67.5 20.4862 65.2361 17.625 62.375C14.7639 59.5139 12.5 56.1667 10.8334 52.3333C9.16671 48.5 8.33337 44.3889 8.33337 40C8.33337 35.6111 9.16671 31.5 10.8334 27.6667C12.5 23.8333 14.7639 20.4861 17.625 17.625C20.4862 14.7639 23.8334 12.5 27.6667 10.8333C31.5 9.16667 35.6112 8.33333 40 8.33333V0L53.3334 13.3333L40 26.6667V18.3333C34 18.3333 28.8889 20.4444 24.6667 24.6667C20.4445 28.8889 18.3334 34 18.3334 40C18.3334 43.6667 19.1806 47.0694 20.875 50.2083C22.5695 53.3472 24.8334 55.8889 27.6667 57.8333C28.5556 56.2778 29.875 54.9583 31.625 53.875C33.375 52.7917 35.3889 52.1111 37.6667 51.8333C37.5 50.6667 37.2778 49.5 37 48.3333C36.7223 47.1667 36.3889 46.0833 36 45.0833C35.3889 45.5833 34.7223 45.9722 34 46.25C33.2778 46.5278 32.5 46.6667 31.6667 46.6667C29.8334 46.6667 28.2639 46.0139 26.9584 44.7083C25.6528 43.4028 25 41.8333 25 40V36.6667C25 35.7222 24.8473 34.8333 24.5417 34C24.2362 33.1667 23.8334 32.3889 23.3334 31.6667C26.1112 31.6111 28.5834 31.8611 30.75 32.4167C32.6389 32.9167 34.3612 33.7361 35.9167 34.875C37.4723 36.0139 38.2778 37.7222 38.3334 40C38.3334 40.5 38.2917 40.9583 38.2084 41.375C38.125 41.7917 37.9723 42.2222 37.75 42.6667C37.0278 42.1111 36.3056 41.6111 35.5834 41.1667C34.8612 40.7222 34.1112 40.3333 33.3334 40C34.2778 40.7222 35.3612 41.8333 36.5834 43.3333C37.8056 44.8333 38.9445 46.6111 40 48.6667C41.1112 45.9444 42.5 43.2639 44.1667 40.625C45.8334 37.9861 47.7778 35.5556 50 33.3333C48.7223 34.2222 47.5 35.1667 46.3334 36.1667C45.1667 37.1667 44.0278 38.2222 42.9167 39.3333C42.5278 38.7222 42.2223 38.0417 42 37.2917C41.7778 36.5417 41.6667 35.7778 41.6667 35C41.6667 32.6667 42.4723 30.6944 44.0834 29.0833C45.6945 27.4722 47.6667 26.6667 50 26.6667H53.3334C54.6112 26.6667 55.6667 26.5 56.5 26.1667C57.3334 25.8333 58.0278 25.4444 58.5834 25C59.1945 24.5 59.6667 23.9444 60 23.3333C60.2223 27.0556 60.0278 30.3889 59.4167 33.3333C58.9167 35.8333 57.9723 38.125 56.5834 40.2083C55.1945 42.2917 53 43.3333 50 43.3333C49.1667 43.3333 48.375 43.2222 47.625 43C46.875 42.7778 46.1945 42.4722 45.5834 42.0833C45.1945 43.1389 44.75 44.5417 44.25 46.2917C43.75 48.0417 43.3612 49.9167 43.0834 51.9167C45.1945 52.3056 47.0556 53.0278 48.6667 54.0833C50.2778 55.1389 51.5 56.3889 52.3334 57.8333C55.1667 55.8889 57.4306 53.3611 59.125 50.25C60.8195 47.1389 61.6667 43.7222 61.6667 40H71.6667C71.6667 44.3889 70.8334 48.5 69.1667 52.3333C67.5 56.1667 65.2362 59.5139 62.375 62.375C59.5139 65.2361 56.1667 67.5 52.3334 69.1667C48.5 70.8333 44.3889 71.6667 40 71.6667Z" fill="white"/>
</g>
<defs>
<clipPath id="clip0_98_104">
<rect width="80" height="80" fill="white"/>
</clipPath>
</defs>
</svg>
