<svg width="80" height="80" viewBox="0 0 80 80" fill="none" xmlns="http://www.w3.org/2000/svg">
<path d="M51 55.6665L55.6667 50.9998L43.3334 38.6665V23.3332H36.6667V41.3332L51 55.6665ZM40 73.3332C35.3889 73.3332 31.0556 72.4582 27 70.7082C22.9445 68.9582 19.4167 66.5832 16.4167 63.5832C13.4167 60.5832 11.0417 57.0554 9.29169 52.9998C7.54169 48.9443 6.66669 44.6109 6.66669 39.9998C6.66669 35.3887 7.54169 31.0554 9.29169 26.9998C11.0417 22.9443 13.4167 19.4165 16.4167 16.4165C19.4167 13.4165 22.9445 11.0415 27 9.2915C31.0556 7.5415 35.3889 6.6665 40 6.6665C44.6111 6.6665 48.9445 7.5415 53 9.2915C57.0556 11.0415 60.5834 13.4165 63.5834 16.4165C66.5834 19.4165 68.9584 22.9443 70.7084 26.9998C72.4584 31.0554 73.3334 35.3887 73.3334 39.9998C73.3334 44.6109 72.4584 48.9443 70.7084 52.9998C68.9584 57.0554 66.5834 60.5832 63.5834 63.5832C60.5834 66.5832 57.0556 68.9582 53 70.7082C48.9445 72.4582 44.6111 73.3332 40 73.3332ZM40 66.6665C47.3889 66.6665 53.6806 64.0693 58.875 58.8748C64.0695 53.6804 66.6667 47.3887 66.6667 39.9998C66.6667 32.6109 64.0695 26.3193 58.875 21.1248C53.6806 15.9304 47.3889 13.3332 40 13.3332C32.6111 13.3332 26.3195 15.9304 21.125 21.1248C15.9306 26.3193 13.3334 32.6109 13.3334 39.9998C13.3334 47.3887 15.9306 53.6804 21.125 58.8748C26.3195 64.0693 32.6111 66.6665 40 66.6665Z" fill="white"/>
</svg>
