<svg width="80" height="80" viewBox="0 0 80 80" fill="none" xmlns="http://www.w3.org/2000/svg">
<path d="M16.6666 73.3332V66.6665H36.6666V53.3332H30C25.3889 53.3332 21.4583 51.7082 18.2083 48.4582C14.9583 45.2082 13.3333 41.2776 13.3333 36.6665C13.3333 33.3332 14.25 30.2637 16.0833 27.4582C17.9166 24.6526 20.3889 22.6109 23.5 21.3332C24 17.1665 25.8194 13.6804 28.9583 10.8748C32.0972 8.06928 35.7778 6.6665 40 6.6665C44.2222 6.6665 47.9028 8.06928 51.0416 10.8748C54.1805 13.6804 56 17.1665 56.5 21.3332C59.6111 22.6109 62.0833 24.6526 63.9166 27.4582C65.75 30.2637 66.6666 33.3332 66.6666 36.6665C66.6666 41.2776 65.0416 45.2082 61.7916 48.4582C58.5416 51.7082 54.6111 53.3332 50 53.3332H43.3333V66.6665H63.3333V73.3332H16.6666ZM30 46.6665H50C52.7778 46.6665 55.1389 45.6943 57.0833 43.7498C59.0278 41.8054 60 39.4443 60 36.6665C60 34.6665 59.4305 32.8332 58.2916 31.1665C57.1528 29.4998 55.6666 28.2776 53.8333 27.4998L50.3333 25.9998L49.8333 22.1665C49.5 19.6665 48.4028 17.5693 46.5416 15.8748C44.6805 14.1804 42.5 13.3332 40 13.3332C37.5 13.3332 35.3194 14.1804 33.4583 15.8748C31.5972 17.5693 30.5 19.6665 30.1666 22.1665L29.6666 25.9998L26.1666 27.4998C24.3333 28.2776 22.8472 29.4998 21.7083 31.1665C20.5694 32.8332 20 34.6665 20 36.6665C20 39.4443 20.9722 41.8054 22.9166 43.7498C24.8611 45.6943 27.2222 46.6665 30 46.6665Z" fill="white"/>
</svg>
